<?xml version="1.0" encoding="UTF-8" standalone="no" ?>
<COLLADA xmlns="http://www.collada.org/2005/11/COLLADASchema" version="1.4.1">
    <asset>
        <contributor>
            <authoring_tool>SketchUp 21.0.391</authoring_tool>
        </contributor>
        <created>2022-05-20T23:22:12Z</created>
        <modified>2022-05-20T23:22:12Z</modified>
        <unit meter="0.0254" name="inch" />
        <up_axis>Z_UP</up_axis>
    </asset>
    <library_cameras>
        <camera id="ID1" name="skp_camera_Last_Saved_SketchUp_View">
            <optics>
                <technique_common>
                    <perspective>
                        <yfov>35</yfov>
                        <aspect_ratio>0</aspect_ratio>
                        <znear>1</znear>
                        <zfar>1000</zfar>
                    </perspective>
                </technique_common>
            </optics>
        </camera>
    </library_cameras>
    <library_visual_scenes>
        <visual_scene id="ID2">
            <node name="SketchUp">
                <node name="skp_camera_Last_Saved_SketchUp_View">
                    <matrix>0.8119252 -0.2248638 0.5387149 793.8768 0.5837615 0.3127521 -0.7492721 -1457.538 -5.551115e-17 0.9228339 0.3851981 588.8506 0 0 0 1</matrix>
                    <instance_camera url="#ID1" />
                </node>
                <node id="ID3" name="group_0">
                    <matrix>1.86 0 0 -342.1218 0 1.86 0 -338.7725 0 0 1.86 -340.6132 0 0 0 1</matrix>
                    <node id="ID4" name="instance_0">
                        <matrix>1 -0 0 12.48688 0 0.7071068 -0.7071068 105.8241 0 0.7071068 0.7071068 15.8241 0 0 0 1</matrix>
                        <instance_node url="#ID5" />
                    </node>
                    <node id="ID20" name="instance_1">
                        <matrix>1 -0 0 12.48688 0 0.9659258 -0.258819 32.29524 0 0.258819 0.9659258 77.29524 0 0 0 1</matrix>
                        <instance_node url="#ID5" />
                    </node>
                    <node id="ID21" name="instance_2">
                        <matrix>1 -0 0 12.48688 0 0.5 -0.8660254 151.9466 0 0.8660254 0.5 1.373647 0 0 0 1</matrix>
                        <instance_node url="#ID5" />
                    </node>
                    <node id="ID22" name="instance_3">
                        <matrix>1 -0 0 12.48688 0 0.8660254 -0.5 65.01326 0 0.5 0.8660254 41.71954 0 0 0 1</matrix>
                        <instance_node url="#ID5" />
                    </node>
                    <node id="ID23" name="instance_4">
                        <matrix>1 0 0 12.48688 0 -1 -1.224021e-14 357.633 0 1.224021e-14 -1 247.406 0 0 0 1</matrix>
                        <instance_node url="#ID5" />
                    </node>
                    <node id="ID24" name="instance_5">
                        <matrix>1 0 0 12.48688 0 -0.8660254 -0.5 366.1591 0 0.5 -0.8660254 151.9466 0 0 0 1</matrix>
                        <instance_node url="#ID5" />
                    </node>
                    <node id="ID25" name="instance_6">
                        <matrix>1 0 0 12.48688 0 -0.7071068 -0.7071068 351.7087 0 0.7071068 -0.7071068 105.8241 0 0 0 1</matrix>
                        <instance_node url="#ID5" />
                    </node>
                    <node id="ID26" name="instance_7">
                        <matrix>1 0 0 12.48688 0 -0.9659258 -0.258819 368.1798 0 0.258819 -0.9659258 200.2375 0 0 0 1</matrix>
                        <instance_node url="#ID5" />
                    </node>
                    <node id="ID27" name="instance_8">
                        <matrix>1 0 0 12.48688 0 -0.5 -0.8660254 325.8132 0 0.8660254 -0.5 65.01326 0 0 0 1</matrix>
                        <instance_node url="#ID5" />
                    </node>
                    <node id="ID28" name="instance_9">
                        <matrix>1 -0 0 12.48688 0 0.258819 -0.9659258 200.2375 0 0.9659258 0.258819 -0.6470426 0 0 0 1</matrix>
                        <instance_node url="#ID5" />
                    </node>
                    <node id="ID29" name="instance_10">
                        <matrix>1 -0 0 12.48688 0 1.923461e-14 -1 247.406 0 1 1.923461e-14 9.899738 0 0 0 1</matrix>
                        <instance_node url="#ID5" />
                    </node>
                    <node id="ID30" name="instance_11">
                        <matrix>1 0 0 12.48688 0 -0.258819 -0.9659258 290.2375 0 0.9659258 -0.258819 32.29524 0 0 0 1</matrix>
                        <instance_node url="#ID5" />
                    </node>
                    <node id="ID31" name="instance_12">
                        <matrix>1 0 0 12.48688 -0 0.8660254 0.5 1.373647 0 -0.5 0.8660254 215.5862 0 0 0 1</matrix>
                        <instance_node url="#ID5" />
                    </node>
                    <node id="ID32" name="instance_13">
                        <matrix>1 0 0 12.48688 0 -6.133982e-15 1 120.1268 0 -1 -6.133982e-15 357.633 0 0 0 1</matrix>
                        <instance_node url="#ID5" />
                    </node>
                    <node id="ID33" name="instance_14">
                        <matrix>1 0 0 12.48688 -0 0.258819 0.9659258 77.29524 0 -0.9659258 0.258819 335.2375 0 0 0 1</matrix>
                        <instance_node url="#ID5" />
                    </node>
                    <node id="ID34" name="instance_15">
                        <matrix>1 0 0 12.48688 0 -0.5 0.8660254 215.5862 0 -0.8660254 -0.5 366.1591 0 0 0 1</matrix>
                        <instance_node url="#ID5" />
                    </node>
                    <node id="ID35" name="instance_16">
                        <matrix>1 0 0 12.48688 -0 0.5 0.8660254 41.71954 0 -0.8660254 0.5 302.5195 0 0 0 1</matrix>
                        <instance_node url="#ID5" />
                    </node>
                    <node id="ID36" name="instance_17">
                        <matrix>1 0 0 12.48688 0 -0.8660254 0.5 302.5195 0 -0.5 -0.8660254 325.8132 0 0 0 1</matrix>
                        <instance_node url="#ID5" />
                    </node>
                    <node id="ID37" name="instance_18">
                        <matrix>1 0 0 12.48688 0 -0.258819 0.9659258 167.2952 0 -0.9659258 -0.258819 368.1798 0 0 0 1</matrix>
                        <instance_node url="#ID5" />
                    </node>
                    <node id="ID38" name="instance_19">
                        <matrix>1 0 0 12.48688 0 -0.9659258 0.258819 335.2375 0 -0.258819 -0.9659258 290.2375 0 0 0 1</matrix>
                        <instance_node url="#ID5" />
                    </node>
                    <node id="ID39" name="instance_20">
                        <matrix>1 0 0 12.48688 -0 0.9659258 0.258819 -0.6470426 0 -0.258819 0.9659258 167.2952 0 0 0 1</matrix>
                        <instance_node url="#ID5" />
                    </node>
                    <node id="ID40" name="instance_21">
                        <matrix>1 0 0 12.48688 0 -0.7071068 0.7071068 261.7087 0 -0.7071068 -0.7071068 351.7087 0 0 0 1</matrix>
                        <instance_node url="#ID5" />
                    </node>
                    <node id="ID41" name="instance_22">
                        <matrix>1 0 0 12.48688 -0 0.7071068 0.7071068 15.8241 0 -0.7071068 0.7071068 261.7087 0 0 0 1</matrix>
                        <instance_node url="#ID5" />
                    </node>
                    <node id="ID42" name="instance_23">
                        <matrix>1 0 0 12.48688 0 1 0 9.899738 0 0 1 120.1268 0 0 0 1</matrix>
                        <instance_node url="#ID5" />
                    </node>
                    <node id="ID43" name="instance_24">
                        <matrix>-1 0 0 360.2202 -0 -0.258819 -0.9659258 290.2375 0 0.9659258 -0.258819 32.29524 0 0 0 1</matrix>
                        <instance_node url="#ID44" />
                    </node>
                    <node id="ID55" name="instance_25">
                        <matrix>-1 0 0 360.2202 0 -0.8660254 0.5 302.5195 -0 -0.5 -0.8660254 325.8132 0 0 0 1</matrix>
                        <instance_node url="#ID44" />
                    </node>
                    <node id="ID56" name="instance_26">
                        <matrix>-1 0 0 360.2202 0 0.8660254 -0.5 65.01326 0 0.5 0.8660254 41.71954 0 0 0 1</matrix>
                        <instance_node url="#ID44" />
                    </node>
                    <node id="ID57" name="instance_27">
                        <matrix>-1 0 0 360.2202 0 0.7071068 0.7071068 15.8241 0 -0.7071068 0.7071068 261.7087 0 0 0 1</matrix>
                        <instance_node url="#ID44" />
                    </node>
                    <node id="ID58" name="instance_28">
                        <matrix>-1 0 0 360.2202 -0 -0.8660254 -0.5 366.1591 0 0.5 -0.8660254 151.9466 0 0 0 1</matrix>
                        <instance_node url="#ID44" />
                    </node>
                    <node id="ID59" name="instance_29">
                        <matrix>-1 0 0 360.2202 0 0.7071068 -0.7071068 105.8241 0 0.7071068 0.7071068 15.8241 0 0 0 1</matrix>
                        <instance_node url="#ID44" />
                    </node>
                    <node id="ID60" name="instance_30">
                        <matrix>-1 0 0 360.2202 0 0.8660254 0.5 1.373647 0 -0.5 0.8660254 215.5862 0 0 0 1</matrix>
                        <instance_node url="#ID44" />
                    </node>
                    <node id="ID61" name="instance_31">
                        <matrix>-1 0 0 360.2202 0 0.9659258 -0.258819 32.29524 0 0.258819 0.9659258 77.29524 0 0 0 1</matrix>
                        <instance_node url="#ID44" />
                    </node>
                    <node id="ID62" name="instance_32">
                        <matrix>-1 0 0 360.2202 -0 -0.7071068 -0.7071068 351.7087 0 0.7071068 -0.7071068 105.8241 0 0 0 1</matrix>
                        <instance_node url="#ID44" />
                    </node>
                    <node id="ID63" name="instance_33">
                        <matrix>-1 0 0 360.2202 0 0.258819 0.9659258 77.29524 0 -0.9659258 0.258819 335.2375 0 0 0 1</matrix>
                        <instance_node url="#ID44" />
                    </node>
                    <node id="ID64" name="instance_34">
                        <matrix>-1 0 0 360.2202 0 0.5 -0.8660254 151.9466 0 0.8660254 0.5 1.373647 0 0 0 1</matrix>
                        <instance_node url="#ID44" />
                    </node>
                    <node id="ID65" name="instance_35">
                        <matrix>-1 0 0 360.2202 0 1 0 9.899738 0 -0 1 120.1268 0 0 0 1</matrix>
                        <instance_node url="#ID44" />
                    </node>
                    <node id="ID66" name="instance_36">
                        <matrix>-1 0 0 360.2202 -0 -1 -1.224021e-14 357.633 0 1.224021e-14 -1 247.406 0 0 0 1</matrix>
                        <instance_node url="#ID44" />
                    </node>
                    <node id="ID67" name="instance_37">
                        <matrix>-1 0 0 360.2202 0 0.258819 -0.9659258 200.2375 0 0.9659258 0.258819 -0.6470426 0 0 0 1</matrix>
                        <instance_node url="#ID44" />
                    </node>
                    <node id="ID68" name="instance_38">
                        <matrix>-1 0 0 360.2202 0 1.923461e-14 -1 247.406 0 1 1.923461e-14 9.899738 0 0 0 1</matrix>
                        <instance_node url="#ID44" />
                    </node>
                    <node id="ID69" name="instance_39">
                        <matrix>-1 0 0 360.2202 0 -6.133982e-15 1 120.1268 -0 -1 -6.133982e-15 357.633 0 0 0 1</matrix>
                        <instance_node url="#ID44" />
                    </node>
                    <node id="ID70" name="instance_40">
                        <matrix>-1 0 0 360.2202 0 -0.258819 0.9659258 167.2952 -0 -0.9659258 -0.258819 368.1798 0 0 0 1</matrix>
                        <instance_node url="#ID44" />
                    </node>
                    <node id="ID71" name="instance_41">
                        <matrix>-1 0 0 360.2202 0 0.5 0.8660254 41.71954 0 -0.8660254 0.5 302.5195 0 0 0 1</matrix>
                        <instance_node url="#ID44" />
                    </node>
                    <node id="ID72" name="instance_42">
                        <matrix>-1 0 0 360.2202 0 -0.9659258 0.258819 335.2375 -0 -0.258819 -0.9659258 290.2375 0 0 0 1</matrix>
                        <instance_node url="#ID44" />
                    </node>
                    <node id="ID73" name="instance_43">
                        <matrix>-1 0 0 360.2202 0 -0.5 0.8660254 215.5862 -0 -0.8660254 -0.5 366.1591 0 0 0 1</matrix>
                        <instance_node url="#ID44" />
                    </node>
                    <node id="ID74" name="instance_44">
                        <matrix>-1 0 0 360.2202 -0 -0.9659258 -0.258819 368.1798 0 0.258819 -0.9659258 200.2375 0 0 0 1</matrix>
                        <instance_node url="#ID44" />
                    </node>
                    <node id="ID75" name="instance_45">
                        <matrix>-1 0 0 360.2202 0 -0.7071068 0.7071068 261.7087 -0 -0.7071068 -0.7071068 351.7087 0 0 0 1</matrix>
                        <instance_node url="#ID44" />
                    </node>
                    <node id="ID76" name="instance_46">
                        <matrix>-1 0 0 360.2202 0 0.9659258 0.258819 -0.6470426 0 -0.258819 0.9659258 167.2952 0 0 0 1</matrix>
                        <instance_node url="#ID44" />
                    </node>
                    <node id="ID77" name="instance_47">
                        <matrix>-1 0 0 360.2202 -0 -0.5 -0.8660254 325.8132 0 0.8660254 -0.5 65.01326 0 0 0 1</matrix>
                        <instance_node url="#ID44" />
                    </node>
                </node>
            </node>
        </visual_scene>
    </library_visual_scenes>
    <library_nodes>
        <node id="ID5" name="l1">
            <instance_geometry url="#ID6">
                <bind_material>
                    <technique_common>
                        <instance_material symbol="Material2" target="#ID8">
                            <bind_vertex_input semantic="UVSET0" input_semantic="TEXCOORD" input_set="0" />
                        </instance_material>
                    </technique_common>
                </bind_material>
            </instance_geometry>
            <instance_geometry url="#ID14">
                <bind_material>
                    <technique_common>
                        <instance_material symbol="Material2" target="#ID15">
                            <bind_vertex_input semantic="UVSET0" input_semantic="TEXCOORD" input_set="0" />
                        </instance_material>
                    </technique_common>
                </bind_material>
            </instance_geometry>
        </node>
        <node id="ID44" name="l1">
            <instance_geometry url="#ID45">
                <bind_material>
                    <technique_common>
                        <instance_material symbol="Material2" target="#ID8">
                            <bind_vertex_input semantic="UVSET0" input_semantic="TEXCOORD" input_set="0" />
                        </instance_material>
                    </technique_common>
                </bind_material>
            </instance_geometry>
            <instance_geometry url="#ID51">
                <bind_material>
                    <technique_common>
                        <instance_material symbol="Material2" target="#ID15">
                            <bind_vertex_input semantic="UVSET0" input_semantic="TEXCOORD" input_set="0" />
                        </instance_material>
                    </technique_common>
                </bind_material>
            </instance_geometry>
        </node>
    </library_nodes>
    <library_geometries>
        <geometry id="ID6">
            <mesh>
                <source id="ID9">
                    <float_array id="ID12" count="954">44.26882 109.1859 176.4027 14.65996 149.6948 152.0939 43.76905 108.6384 175.7978 15.01239 150.4501 152.5788 -12.48688 184.8604 91.18526 -12.48688 186.0723 90.87946 14.53393 148.9994 151.5053 43.46134 108.1992 175.0613 81.74501 61.18029 175.7978 82.35625 61.58848 176.4027 15.5672 151.2138 152.9271 44.92661 109.8043 176.8348 -12.48688 187.5546 89.98288 -12.48688 183.5546 89.98288 -12.48688 183.9871 86.69792 -12.48688 183.5496 88.55664 -12.48688 184.0017 90.87946 -12.48688 184.8372 84.53339 -12.48688 184.8604 91.18526 -12.48688 186.042 82.21057 -12.48688 186.0723 90.87946 -12.48688 187.5193 79.88775 -12.48688 187.5546 89.98288 -12.48688 189.1686 77.72323 -12.48688 189.2065 88.55664 -12.48688 190.8774 75.86451 -12.48688 190.9153 86.69792 -12.48688 192.5293 74.43826 -12.48688 192.5646 84.53339 -12.48688 194.0117 73.54169 -12.48688 194.042 82.21057 -12.48688 195.0821 73.27155 -12.48688 195.2467 79.88775 -12.48688 196.2974 73.97318 -12.48688 196.0968 77.72323 -12.48688 196.5343 75.86451 -12.48688 196.5293 74.43826 -12.48688 184.0017 90.87946 14.64288 148.4111 150.8532 43.36667 107.8982 174.2433 81.27836 60.93971 175.0613 126.0081 20.04395 152.0477 126.6708 20.40429 152.625 83.07042 62.13644 176.8348 16.28658 151.9338 153.1149 45.69757 110.4516 177.0646 -12.48688 189.2065 88.55664 -12.39748 195.9664 73.74225 -12.48688 195.0821 73.27155 -12.48688 196.2974 73.97318 -12.45275 195.1793 73.31244 -12.48688 194.0117 73.54169 21.30419 151.4511 149.052 20.95176 150.6958 148.567 -12.45275 195.1793 73.31244 -12.48688 195.0821 73.27155 -12.48688 192.5293 74.43826 20.39695 149.9321 148.2188 -12.48688 190.8774 75.86451 19.67757 149.2121 148.031 -12.48688 189.1686 77.72323 18.84265 148.5848 148.0164 -12.48688 187.5193 79.88775 17.94908 148.0931 148.1761 -12.48688 186.042 82.21057 17.05775 147.7703 148.4991 -12.48688 184.8372 84.53339 16.22942 147.6385 148.9634 -12.48688 183.9871 86.69792 15.52053 147.7067 149.5374 -12.48688 183.5496 88.55664 14.97939 147.9702 150.182 -12.48688 183.5546 89.98288 17.12151 152.561 153.1294 -12.48688 190.9153 86.69792 18.01508 153.0528 152.9698 -12.48688 192.5646 84.53339 18.9064 153.3756 152.6468 -12.48688 194.042 82.21057 19.73473 153.5074 152.1825 -12.48688 195.2467 79.88775 20.44362 153.4392 151.6085 -12.48688 196.0968 77.72323 20.98476 153.1756 150.9639 -12.48688 196.5343 75.86451 -12.48688 196.5293 74.43826 21.32127 152.7347 150.2927 -12.39748 195.9664 73.74225 21.43022 152.1465 149.6406 -12.48688 196.2974 73.97318 43.49149 107.7559 173.3997 80.98809 60.88312 174.2433 125.432 19.90507 151.3699 174.1898 -3.355186 111.4724 173.5447 -3.724327 110.8799 127.375 20.96155 153.0625 83.83885 62.78685 177.0646 46.52918 111.0835 177.0765 49.40581 111.8156 171.9355 48.90603 111.2682 171.3306 48.24825 110.6497 170.8985 47.47728 110.0025 170.6687 46.64567 109.3706 170.6568 45.81009 108.797 170.8637 45.02749 108.3209 171.2752 44.35119 107.9747 171.8633 43.82729 107.782 172.5879 47.36476 111.6571 176.8696 48.14737 112.1332 176.4581 48.82366 112.4794 175.87 49.34757 112.6721 175.1453 49.68337 112.6982 174.3336 49.80819 112.5559 173.49 49.71352 112.2549 172.672 80.89399 61.01438 173.3997 124.9818 19.99712 150.6378 172.9215 -3.83966 110.2428 221.6741 -3.355186 63.98805 221.1157 -3.724327 63.30883 174.8129 -2.757395 111.9801 128.0727 21.67774 153.3303 84.60918 63.49536 177.0765 85.37705 65.69074 171.3306 85.98829 66.09893 171.9355 84.66288 65.14278 170.8985 83.89444 64.49237 170.6687 83.12412 63.78386 170.6568 82.40439 63.06551 170.8637 81.78432 62.38628 171.2752 81.30615 61.79247 171.8633 81.00248 61.32454 172.5879 85.32891 64.21371 176.8696 85.94898 64.89294 176.4581 86.42715 65.48675 175.87 86.73082 65.95468 175.1453 86.8393 66.26484 174.3336 86.74521 66.3961 173.49 86.45494 66.33951 172.672 124.6882 20.31383 149.9013 172.3627 -3.693328 109.6047 220.5122 -3.83966 62.65216 265.8885 20.36873 22.89702 265.4787 20.07935 22.07966 222.1494 -2.757395 64.64352 175.3715 -1.971693 112.3683 128.7162 22.50405 153.4102 127.8876 26.18314 148.5209 128.5503 26.54348 149.0982 127.1834 25.62588 148.0834 126.4858 24.90969 147.8156 125.8422 24.08338 147.7357 125.2966 23.20325 147.8492 124.886 22.32928 148.1483 124.6386 21.52104 148.6126 124.5711 20.83361 149.2105 129.2619 23.38418 153.2967 129.6724 24.25814 152.9976 129.9198 25.06638 152.5333 129.9873 25.75382 151.9354 129.8703 26.2736 151.2446 129.5766 26.59031 150.5081 129.1264 26.68236 149.776 171.9064 -3.295301 109.0091 219.9047 -3.693328 62.06278 264.959 20.00901 21.34504 303.8225 61.42325 -0.8058172 303.6075 61.34479 -1.744952 266.1605 20.85745 23.74141 222.5092 -1.971693 65.23058 175.8276 -1.051622 112.6105 174.1886 3.724327 109.5742 173.5435 3.355186 108.9817 172.9204 2.757395 108.474 172.3618 1.971693 108.0858 171.9057 1.051622 107.8435 171.5833 0.05988551 107.7637 171.4165 -0.9359323 107.8517 171.4166 -1.867968 108.1016 171.5837 -2.672704 108.4964 176.15 -0.05988551 112.6904 176.3168 0.9359323 112.6024 176.3167 1.867968 112.3525 176.1496 2.672704 111.9577 175.8269 3.295301 111.445 175.3706 3.693328 110.8493 174.8118 3.83966 110.2112 219.3346 -3.295301 61.58085 264.3649 20.16253 20.74322 303.2249 61.42272 -2.565171 332.8957 109.0442 -1.744952 332.8992 108.7784 -0.8058172 303.855 61.65275 0.1882324 266.2762 21.5122 24.55529 222.7289 -1.051622 65.70921 219.7925 3.724327 63.97039 219.234 3.355186 63.29117 218.7587 2.757395 62.6357 218.399 1.971693 62.04864 218.1793 1.051622 61.57001 218.1146 0.05988551 61.23241 218.2093 -0.9359323 61.05887 218.4571 -1.867968 61.06119 218.8409 -2.672704 61.23923 222.7936 -0.05988551 66.04681 222.6988 0.9359323 66.22036 222.4511 1.867968 66.21803 222.0673 2.672704 66.03999 221.5735 3.295301 65.69837 221.0035 3.693328 65.21644 220.396 3.83966 64.62706 263.7369 20.52943 20.31521 302.7005 61.65172 -3.210577 332.6778 109.3906 -2.565171 359.1505 167.6777 33.19969 359.1505 167.9514 32.26515 332.6882 108.6114 0.1882324 303.7028 62.01765 1.169454 266.2277 22.28835 25.28319 262.2546 26.50808 24.50777 261.8448 26.2187 23.69041 261.5728 25.72998 22.84602 261.4571 25.07523 22.03214 261.5056 24.29908 21.30423 261.715 23.45441 20.71191 262.0711 22.59879 20.29553 262.5495 21.79053 20.08347 263.1176 21.08471 20.09018 266.0183 23.13302 25.87552 265.6622 23.98864 26.2919 265.1838 24.7969 26.50396 264.6157 25.50272 26.49725 263.9964 26.058 26.27222 263.3684 26.4249 25.84421 262.7743 26.57841 25.24239 302.0702 62.0162 -3.637189 332.2605 109.7939 -3.210577 359.1505 168.7865 31.72711 359.1505 167.9514 32.26515 359.1505 167.984 34.46704 359.1505 167.6777 33.19969 359.1505 168.7865 31.72711 359.1505 168.8495 35.98084 359.1505 170.1262 31.62224 359.1505 170.2152 37.63792 359.1505 171.879 31.95769 359.1505 171.9881 39.32536 359.1505 173.9255 32.71059 359.1505 174.0472 40.92816 359.1505 176.1264 33.82963 359.1505 176.2523 42.33709 359.1505 178.3315 35.23856 359.1505 178.4532 43.45614 359.1505 180.3906 36.84136 359.1505 180.4997 44.20904 359.1505 182.1635 38.5288 359.1505 182.2526 44.54448 359.1505 183.5292 40.18588 359.1505 183.5922 44.43961 359.1505 184.3947 41.69968 359.1505 184.4273 43.90158 359.1505 184.701 42.96704 359.1505 167.984 34.46704 332.2771 108.5544 1.169454 303.3765 62.49308 2.07098 298.6842 65.93443 1.744952 298.4693 65.85597 0.8058172 298.4368 65.62647 -0.1882324 298.5889 65.26157 -1.169454 298.9153 64.78614 -2.07098 299.3937 64.23257 -2.831371 299.9914 63.63859 -3.39881 300.6679 63.04468 -3.734625 301.377 62.49131 -3.815931 302.8981 63.04665 2.831371 302.3003 63.64063 3.39881 301.6238 64.23454 3.734625 300.9148 64.78791 3.815931 300.2215 65.26302 3.637189 299.5912 65.6275 3.210577 299.0669 65.8565 2.565171 331.6723 110.2268 -3.637189 359.1505 170.1262 31.62224 359.1505 180.3906 36.84136 329.3235 111.4096 -3.39881 328.5243 111.6755 -2.831371 359.1505 178.3315 35.23856 359.1505 182.1635 38.5288 327.8086 111.8426 -2.07098 327.2254 111.8996 -1.169454 359.1505 183.5292 40.18588 359.1505 184.3947 41.69968 326.8142 111.8427 -0.1882324 359.1505 184.701 42.96704 326.6032 111.6757 0.8058172 359.1505 184.4273 43.90158 326.6068 111.4099 1.744952 359.1505 183.5922 44.43961 326.8246 111.0635 2.565171 359.1505 182.2526 44.54448 327.2419 110.6601 3.210577 327.8302 110.2272 3.637189 359.1505 180.4997 44.20904 328.5494 109.7943 3.815931 359.1505 178.4532 43.45614 329.3505 109.3909 3.734625 359.1505 176.2523 42.33709 330.1789 109.0445 3.39881 359.1505 174.0472 40.92816 330.9782 108.7786 2.831371 359.1505 171.9881 39.32536 331.6938 108.6115 2.07098 359.1505 170.2152 37.63792 359.1505 168.8495 35.98084 359.1505 171.879 31.95769 359.1505 173.9255 32.71059 330.9531 110.6597 -3.815931 359.1505 176.1264 33.82963 330.152 111.0632 -3.734625</float_array>
                    <technique_common>
                        <accessor count="318" source="#ID12" stride="3">
                            <param name="X" type="float" />
                            <param name="Y" type="float" />
                            <param name="Z" type="float" />
                        </accessor>
                    </technique_common>
                </source>
                <source id="ID10">
                    <float_array id="ID13" count="954">-0.5438154 -0.1811813 0.8194133 -0.8488719 -0.08865664 0.5211108 -0.676813 -0.3264927 0.6597929 -0.7554432 0.1080635 0.6462413 -0.9075767 0.02531824 0.4191224 -0.8106873 0.2720911 0.5184134 -0.8896402 -0.2974352 0.346515 -0.7725018 -0.4615764 0.4361057 -0.4580406 -0.5941261 0.6612208 -0.2942261 -0.4848099 0.8236446 -0.6269371 0.283623 0.7256086 -0.390754 -0.03733914 0.9197375 -0.6758655 0.4665241 0.5705796 -1 6.969765e-30 6.463466e-30 -1 6.969765e-30 6.463466e-30 -1 6.969765e-30 6.463466e-30 -1 6.969765e-30 6.463466e-30 -1 6.969765e-30 6.463466e-30 -1 6.969765e-30 6.463466e-30 -1 6.969765e-30 6.463466e-30 -1 6.969765e-30 6.463466e-30 -1 6.969765e-30 6.463466e-30 -1 6.969765e-30 6.463466e-30 -1 6.969765e-30 6.463466e-30 -1 6.969765e-30 6.463466e-30 -1 6.969765e-30 6.463466e-30 -1 6.969765e-30 6.463466e-30 -1 6.969765e-30 6.463466e-30 -1 6.969765e-30 6.463466e-30 -1 6.969765e-30 6.463466e-30 -1 6.969765e-30 6.463466e-30 -1 6.969765e-30 6.463466e-30 -1 6.969765e-30 6.463466e-30 -1 6.969765e-30 6.463466e-30 -1 6.969765e-30 6.463466e-30 -1 6.969765e-30 6.463466e-30 -1 6.969765e-30 6.463466e-30 -0.9283891 -0.2643898 0.2611355 -0.857897 -0.4974859 0.1285325 -0.8085368 -0.5670323 0.157298 -0.6035095 -0.6694969 0.4330706 -0.2087456 -0.8207104 0.5318456 -0.03015984 -0.7246444 0.6884627 -0.1274994 -0.3570937 0.9253259 -0.4740603 0.4360396 0.764942 -0.2269853 0.1001959 0.9687303 -0.5174061 0.6207724 0.5890098 -0.3600924 0.4664583 -0.8079295 -0.3600924 0.4664583 -0.8079295 -0.3600924 0.4664583 -0.8079295 -0.3600924 0.4664583 -0.8079295 0.863657 -0.1607745 -0.4777532 0.8573401 0.1146256 -0.5018256 0.7662271 -0.08991594 -0.6362477 0.9140966 0.003339488 -0.4054828 0.8806178 -0.1159355 -0.4594248 0.7617228 -0.3529936 -0.5432991 0.6359425 -0.273111 -0.7217946 0.6283884 -0.518822 -0.5796134 0.4788845 -0.4318549 -0.7643108 0.4705934 -0.6569495 -0.5890324 0.3005581 -0.5660419 -0.7676337 0.2896393 -0.7673319 -0.5721109 0.1025311 -0.6741727 -0.7314222 0.08392199 -0.8463179 -0.5260257 -0.1136303 -0.7504251 -0.6511146 -0.1471523 -0.8835836 -0.4445517 -0.3410572 -0.7830291 -0.5201398 -0.3965916 -0.8604153 -0.320001 -0.5614841 -0.7561491 -0.3361163 -0.640776 -0.7530898 -0.1492042 -0.7441574 -0.658825 -0.1103605 -0.8353796 -0.5467451 0.05666338 -0.3015286 0.5654142 0.7677157 -0.3378081 0.7420621 0.5789901 -0.1107089 0.6704532 0.7336457 -0.1356955 0.8306271 0.540042 0.09714562 0.7461075 0.6587005 0.08962312 0.8793165 0.4677288 0.3166411 0.7820999 0.5367105 0.3320027 0.8734036 0.3562869 0.5330608 0.7638048 0.3639347 0.5705113 0.7953188 0.2049019 0.7197661 0.6784747 0.1469996 0.7679865 0.6398903 0.02715095 0.88923 0.433526 -0.1460315 0.8452224 0.5266031 -0.09103978 0.9296287 0.2520559 -0.2688089 0.8899327 0.3284069 -0.3164944 0.9075036 0.3759003 -0.1874462 -0.7690402 -0.622286 -0.146073 -0.7067851 -0.6914999 0.1492741 -0.3896046 -0.8640491 0.3187906 0.2276292 -0.8516151 0.4721618 0.05325848 -0.9488129 0.3113159 0.1343534 -0.5956838 0.7919028 0.03535259 -0.219499 0.974972 -0.05617816 0.2300961 0.971545 0.6876351 0.3397617 -0.6416541 0.5528442 0.1902918 -0.8112659 0.3956403 0.04167162 -0.9174597 0.2268695 -0.1002883 -0.9687479 0.0507306 -0.234034 -0.970904 -0.1314189 -0.3586127 -0.9241894 -0.3171693 -0.4707161 -0.8233043 -0.4986078 -0.5620303 -0.6599335 -0.6580498 -0.6180653 -0.4300764 0.1204762 0.3515213 0.9283955 0.301021 0.4616325 0.834435 0.4789717 0.55325 0.6815428 0.6392571 0.6133381 0.4638607 0.7573389 0.6252862 0.1882946 0.8077477 0.5779561 -0.1162342 0.7803941 0.4762023 -0.4052362 -0.7453581 -0.6478151 -0.1574069 -0.5494658 -0.8333022 0.06078464 -0.1435982 -0.9835448 0.109632 0.4606722 -0.8532541 0.2444149 0.3094508 -0.9489142 0.06166133 0.3730591 -0.7148945 0.591399 0.2816237 -0.445755 0.8497003 0.192459 -0.07526218 0.9784146 0.2988166 0.4881159 -0.8200314 0.4673311 0.5996993 -0.6495864 0.1270471 0.3567284 -0.925529 -0.0402883 0.2151412 -0.9757516 -0.2011958 0.06689399 -0.9772643 -0.3549875 -0.08718916 -0.9307964 -0.4986996 -0.2456958 -0.8312234 -0.6236435 -0.4028296 -0.6699232 -0.7130477 -0.5444218 -0.4417782 0.3431902 0.07487396 0.9362769 0.4850585 0.2298598 0.8437315 0.6105686 0.3850236 0.6920714 0.7044746 0.5281393 0.4741143 0.7450701 0.6377281 0.1953802 0.7147023 0.6899253 -0.1149078 0.6148136 0.6738983 -0.4097137 -0.6604376 -0.7208383 -0.2102721 -0.3429817 -0.9319135 -0.1179012 0.117968 -0.982256 -0.1457967 0.6536833 -0.753796 0.06700571 0.5420721 -0.8268777 -0.1497699 0.5716758 -0.7184933 0.3961744 0.4905667 -0.5525284 0.6738373 0.4119942 -0.2796751 0.8672039 0.02903644 0.7238938 -0.6893002 0.2132703 0.8225151 -0.5272425 -0.1397116 0.5908271 -0.7946093 -0.2897357 0.4364323 -0.8518099 -0.4216559 0.265803 -0.8669227 -0.5355487 0.07961965 -0.8407427 -0.6280255 -0.1220093 -0.7685686 -0.6899466 -0.3347282 -0.6418183 -0.706028 -0.5437717 -0.4536924 0.5255068 -0.09808232 0.8451168 0.6191909 0.09930625 0.7789358 0.6846972 0.3094562 0.6598686 0.7070908 0.519982 0.479209 0.6686781 0.7041613 0.2388021 0.561496 0.8266521 -0.03699263 0.3996492 0.8644595 -0.3049432 -0.5141227 -0.7874315 -0.3400434 -0.09995878 -0.928758 -0.356955 0.3765424 -0.8450951 -0.379513 0.7963321 -0.6043719 -0.02428318 0.7357889 -0.6214368 -0.2691301 0.7182066 -0.6456983 0.2593319 0.6475982 -0.558351 0.5185178 0.5826581 -0.3699698 0.7236241 -0.05498204 0.9481638 -0.3129893 -0.2338575 0.846897 -0.4775731 -0.3813477 0.7052228 -0.5976911 -0.4991992 0.5380333 -0.6792057 -0.5904288 0.3508653 -0.7268338 -0.6556005 0.1439893 -0.7412523 -0.6908795 -0.08334753 -0.7181495 -0.6870496 -0.3274778 -0.6486302 -0.6311384 -0.5728764 -0.5229503 0.6498414 -0.1675087 0.7413818 0.6885797 0.05608988 0.7229882 0.6899059 0.2986855 0.6594064 0.6400275 0.5472377 0.5393475 0.5269502 0.7706881 0.3582783 0.3542922 0.9258205 0.1316564 0.14865 0.9833874 -0.1041752 -0.3141424 -0.7817285 -0.5387162 0.1624873 -0.7877066 -0.5942358 0.6127381 -0.5935429 -0.5217842 0.87931 -0.3918069 -0.2707422 0.8859144 -0.4628511 -0.03040543 0.8073253 -0.5557333 0.1984601 0.7442066 -0.5142541 0.4262619 0.6926175 -0.3778965 0.6143901 -0.316772 0.9459103 -0.07006514 -0.4696906 0.8448871 -0.2560402 -0.5798995 0.7049337 -0.4083932 -0.6537338 0.5403268 -0.5297916 -0.6958695 0.3559639 -0.623743 -0.7068734 0.1515672 -0.6909105 -0.6824343 -0.07414253 -0.727177 -0.6137846 -0.3179991 -0.7225961 -0.4913515 -0.564712 -0.6630792 0.707291 -0.1769112 0.6844282 0.6874128 0.04645433 0.7247798 0.6238225 0.29062 0.7255243 0.5051204 0.5424499 0.6712686 0.3271112 0.7693209 0.5487655 0.1064363 0.9257511 0.3628447 -0.1198046 0.982312 0.1439095 -0.07435952 -0.6499887 -0.7562972 0.4230177 -0.5092029 -0.7495121 0.8065259 -0.2833603 -0.5188669 0.9062087 -0.4217041 0.03084597 0.9314731 -0.2835619 -0.2279267 0.8439423 -0.5021108 0.188802 0.7796494 -0.4842032 0.3971071 0.7367614 -0.3635936 0.5700723 -0.5523756 0.8229733 0.1326503 -0.6620375 0.7443745 -0.08725229 -0.7230105 0.6316647 -0.2797417 -0.7450467 0.4966358 -0.445262 -0.7334892 0.3431022 -0.586749 -0.688434 0.1704033 -0.7049974 -0.6052015 -0.02313137 -0.7957362 -0.4762119 -0.2354623 -0.8472188 -0.2965663 -0.4538809 -0.8402622 0.6960171 -0.1931062 0.6915708 0.61712 -0.0005271016 0.7868689 0.491424 0.213552 0.8443329 0.3115723 0.4380039 0.8432528 0.08334348 0.6433593 0.7610142 -0.1633076 0.7880571 0.5935458 -0.3848457 0.8457532 0.3695881 0.1844805 -0.3710454 -0.9101056 0.6543664 -0.1393558 -0.7432258 0.8633531 -0.09914194 -0.4947649 1 2.589462e-15 3.414832e-16 1 2.589462e-15 3.414832e-16 1 2.589462e-15 3.414832e-16 1 2.589462e-15 3.414832e-16 1 2.589462e-15 3.414832e-16 1 2.589462e-15 3.414832e-16 1 2.589462e-15 3.414832e-16 1 2.589462e-15 3.414832e-16 1 2.589462e-15 3.414832e-16 1 2.589462e-15 3.414832e-16 1 2.589462e-15 3.414832e-16 1 2.589462e-15 3.414832e-16 1 2.589462e-15 3.414832e-16 1 2.589462e-15 3.414832e-16 1 2.589462e-15 3.414832e-16 1 2.589462e-15 3.414832e-16 1 2.589462e-15 3.414832e-16 1 2.589462e-15 3.414832e-16 1 2.589462e-15 3.414832e-16 1 2.589462e-15 3.414832e-16 1 2.589462e-15 3.414832e-16 1 2.589462e-15 3.414832e-16 1 2.589462e-15 3.414832e-16 1 2.589462e-15 3.414832e-16 0.8205259 -0.5122039 0.2537408 0.7653682 -0.515514 0.385301 0.7184574 -0.3930942 0.5738431 -0.7451542 0.6214993 0.2418343 -0.8002093 0.5996963 -0.005423267 -0.805634 0.5471339 -0.2271526 -0.7730363 0.4725735 -0.4231892 -0.7074855 0.379075 -0.5964617 -0.6083159 0.2659207 -0.7478221 -0.4707853 0.130766 -0.872503 -0.2893824 -0.02703616 -0.9568317 -0.0650778 -0.2007953 -0.9774692 0.6231449 -0.2817118 0.7296088 0.4884337 -0.1471916 0.8600972 0.3071523 0.01234677 0.9515803 0.07778008 0.1914935 0.9784071 -0.1822979 0.369662 0.9111078 -0.4312907 0.5134609 0.7418532 -0.6248659 0.5976799 0.502316 0.4309893 0.02412512 -0.9020345 0.6906812 0.1052367 -0.7154612 -0.4978942 0.5892708 -0.6362871 -0.3061129 0.404966 -0.8615668 -0.4893449 0.4672768 -0.7363382 -0.3101647 0.5752371 -0.7569017 -0.6522746 0.5755119 -0.4932787 -0.6359182 0.5028672 -0.5854338 -0.7502253 0.5155215 -0.4140042 -0.7756892 0.5370794 -0.3314392 -0.8668066 0.4746192 -0.1529149 -0.8337204 0.5058417 -0.2214375 -0.9199899 0.3904746 0.03388381 -0.8822331 0.4707883 -0.004814244 -0.9323172 0.2937277 0.2109708 -0.8837746 0.4038582 0.236307 -0.9016757 0.1730965 0.3962557 -0.8185531 0.2974763 0.4914048 -0.802048 0.01272128 0.5971241 -0.6679398 0.1506281 0.7288125 -0.4362398 -0.02064547 0.8995936 -0.6191635 -0.1670359 0.7672911 -0.1630271 -0.1855294 0.9690206 -0.3733696 -0.3334026 0.8657008 0.1013996 -0.3187506 0.9423992 -0.1071086 -0.4608902 0.8809699 0.3278465 -0.4131664 0.8495942 0.1433517 -0.5419806 0.8280745 0.5107156 -0.4734043 0.7176754 0.3616027 -0.581787 0.7285378 0.6547815 -0.5061317 0.5613304 0.5455715 -0.587958 0.5972077 0.698113 -0.5650339 0.4397442 0.44374 0.2914874 -0.8474255 0.171376 0.4342048 -0.8843622 0.1710541 0.1811046 -0.9684739 -0.08613425 0.5266567 -0.845703 -0.08350356 0.310493 -0.9469009</float_array>
                    <technique_common>
                        <accessor count="318" source="#ID13" stride="3">
                            <param name="X" type="float" />
                            <param name="Y" type="float" />
                            <param name="Z" type="float" />
                        </accessor>
                    </technique_common>
                </source>
                <vertices id="ID11">
                    <input semantic="POSITION" source="#ID9" />
                    <input semantic="NORMAL" source="#ID10" />
                </vertices>
                <triangles count="528" material="Material2">
                    <input offset="0" semantic="VERTEX" source="#ID11" />
                    <p>0 1 2 1 0 3 3 4 1 4 3 5 2 6 7 6 2 1 8 0 2 0 8 9 0 10 3 10 0 11 10 5 3 5 10 12 13 14 15 14 13 16 14 16 17 17 16 18 17 18 19 19 18 20 19 20 21 21 20 22 21 22 23 23 22 24 23 24 25 25 24 26 25 26 27 27 26 28 27 28 29 29 28 30 29 30 31 31 30 32 31 32 33 33 32 34 33 34 35 33 35 36 1 37 6 37 1 4 7 38 39 38 7 6 8 7 40 7 8 2 41 9 8 9 41 42 9 11 0 11 9 43 11 44 10 44 11 45 44 12 10 12 44 46 47 48 49 48 47 50 51 52 53 52 51 54 54 51 55 56 53 57 53 56 51 58 57 59 57 58 56 59 60 58 60 59 61 61 62 60 62 61 63 63 64 62 64 63 65 65 66 64 66 65 67 67 68 66 68 67 69 69 70 68 70 69 71 38 70 71 70 38 72 6 72 38 72 6 37 46 73 74 73 46 44 74 75 76 75 74 73 76 77 78 77 76 75 78 79 80 79 78 77 80 81 82 81 80 79 82 83 84 83 82 81 85 83 86 83 85 84 87 86 88 86 87 85 85 87 89 39 71 90 71 39 38 40 39 91 39 40 7 41 40 92 40 41 8 93 41 94 41 93 42 42 43 9 43 42 95 43 45 11 45 43 96 45 73 44 73 45 97 54 88 52 88 54 87 53 98 99 98 53 52 53 100 57 100 53 99 57 101 59 101 57 100 59 102 61 102 59 101 61 103 63 103 61 102 63 104 65 104 63 103 65 105 67 105 65 104 105 69 67 69 105 106 71 106 90 106 71 69 97 75 73 75 97 107 107 77 75 77 107 108 108 79 77 79 108 109 79 110 81 110 79 109 111 81 110 81 111 83 86 111 112 111 86 83 88 112 113 112 88 86 39 114 91 114 39 90 92 91 115 91 92 40 94 92 116 92 94 41 117 94 118 94 117 93 119 42 93 42 119 95 95 96 43 96 95 120 96 97 45 97 96 121 52 113 98 113 52 88 98 122 99 122 98 123 99 124 100 124 99 122 100 125 101 125 100 124 101 126 102 126 101 125 102 127 103 127 102 126 103 128 104 128 103 127 104 129 105 129 104 128 106 129 130 129 106 105 90 130 114 130 90 106 121 107 97 107 121 131 131 108 107 108 131 132 132 109 108 109 132 133 134 109 133 109 134 110 135 110 134 110 135 111 136 111 135 111 136 112 113 136 137 136 113 112 115 114 138 114 115 91 116 115 139 115 116 92 118 116 140 116 118 94 141 118 142 118 141 117 143 93 117 93 143 119 119 120 95 120 119 144 120 121 96 121 120 145 98 137 123 137 98 113 123 146 122 146 123 147 122 148 124 148 122 146 124 149 125 149 124 148 125 150 126 150 125 149 126 151 127 151 126 150 127 152 128 152 127 151 128 153 129 153 128 152 130 153 154 153 130 129 114 154 138 154 114 130 145 131 121 131 145 155 155 132 131 132 155 156 156 133 132 133 156 157 158 133 157 133 158 134 159 134 158 134 159 135 136 159 160 159 136 135 137 160 161 160 137 136 139 138 162 138 139 115 140 139 163 139 140 116 142 140 164 140 142 118 165 142 166 142 165 141 167 117 141 117 167 143 168 119 143 119 168 144 144 145 120 145 144 169 123 161 147 161 123 137 146 170 171 170 146 147 148 171 172 171 148 146 148 173 149 173 148 172 149 174 150 174 149 173 150 175 151 175 150 174 151 176 152 176 151 175 153 176 177 176 153 152 154 177 178 177 154 153 138 178 162 178 138 154 169 155 145 155 169 179 179 156 155 156 179 180 181 156 180 156 181 157 182 157 181 157 182 158 183 158 182 158 183 159 160 183 184 183 160 159 161 184 185 184 161 160 163 162 186 162 163 139 164 163 187 163 164 140 166 164 188 164 166 142 189 165 166 165 189 190 165 167 141 167 165 191 167 168 143 168 167 192 193 144 168 144 193 169 147 185 170 185 147 161 171 194 195 194 171 170 172 195 196 195 172 171 173 196 197 196 173 172 173 198 174 198 173 197 174 199 175 199 174 198 175 200 176 200 175 199 200 177 176 177 200 201 201 178 177 178 201 202 186 178 202 178 186 162 203 169 193 169 203 179 203 180 179 180 203 204 180 205 181 205 180 204 181 206 182 206 181 205 183 206 207 206 183 182 184 207 208 207 184 183 185 208 209 208 185 184 187 186 210 186 187 163 188 187 211 187 188 164 188 189 166 189 188 212 189 213 190 213 189 214 190 191 165 191 190 215 191 192 167 192 191 216 192 193 168 193 192 217 170 209 194 209 170 185 195 218 219 218 195 194 196 219 220 219 196 195 196 221 197 221 196 220 197 222 198 222 197 221 198 223 199 223 198 222 223 200 199 200 223 224 224 201 200 201 224 225 225 202 201 202 225 226 226 186 202 186 226 210 217 203 193 203 217 227 203 228 204 228 203 227 204 229 205 229 204 228 205 230 206 230 205 229 206 231 207 231 206 230 208 231 232 231 208 207 209 232 233 232 209 208 234 187 210 187 234 211 235 188 211 188 235 212 212 214 189 214 212 236 237 238 239 238 237 240 238 240 241 241 240 242 241 242 243 243 242 244 243 244 245 245 244 246 245 246 247 247 246 248 247 248 249 249 248 250 249 250 251 251 250 252 251 252 253 253 252 254 253 254 255 255 254 256 255 256 257 257 256 258 257 258 259 259 258 260 190 261 215 261 190 213 215 216 191 216 215 262 216 217 192 217 216 263 194 233 218 233 194 209 219 264 265 264 219 218 219 266 220 266 219 265 220 267 221 267 220 266 221 268 222 268 221 267 222 269 223 269 222 268 269 224 223 224 269 270 270 225 224 225 270 271 271 226 225 226 271 272 272 210 226 210 272 234 263 227 217 227 263 273 227 274 228 274 227 273 228 275 229 275 228 274 229 276 230 276 229 275 230 277 231 277 230 276 231 278 232 278 231 277 233 278 279 278 233 232 280 211 234 211 280 235 235 236 212 236 235 281 282 283 284 283 282 285 286 284 287 284 286 282 288 286 287 286 288 289 290 288 291 288 290 289 292 291 293 291 292 290 294 293 295 293 294 292 296 295 297 295 296 294 298 297 299 297 298 296 300 298 299 298 300 301 302 301 300 301 302 303 304 303 302 303 304 305 306 305 304 305 306 307 308 307 306 307 308 309 310 309 308 309 310 311 312 310 262 310 312 311 215 312 262 312 215 261 313 235 280 235 313 281 314 280 315 280 314 313 316 315 317 315 316 314 285 317 283 317 285 316 262 263 216 263 262 310 218 279 264 279 218 233 264 293 265 293 264 295 265 291 266 291 265 293 266 288 267 288 266 291 267 287 268 287 267 288 287 269 268 269 287 284 284 270 269 270 284 283 283 271 270 271 283 317 317 272 271 272 317 315 315 234 272 234 315 280 263 308 273 308 263 310 273 306 274 306 273 308 274 304 275 304 274 306 275 302 276 302 275 304 276 300 277 300 276 302 277 299 278 299 277 300 278 297 279 297 278 299 297 264 279 264 297 295</p>
                </triangles>
            </mesh>
        </geometry>
        <geometry id="ID14">
            <mesh>
                <source id="ID17">
                    <float_array id="ID19" count="33">17.98208 150.5729 150.5729 0 173.8666 110.227 46.58743 110.227 173.8666 83.86665 63.63961 173.8666 127.2792 23.29371 150.5729 173.8666 -2.273737e-13 110.227 220.4541 0 63.63961 263.8666 23.29371 23.29371 301.1459 63.63961 -2.842171e-14 329.7512 110.227 2.842171e-14 347.7333 150.5729 23.29371</float_array>
                    <technique_common>
                        <accessor count="11" source="#ID19" stride="3">
                            <param name="X" type="float" />
                            <param name="Y" type="float" />
                            <param name="Z" type="float" />
                        </accessor>
                    </technique_common>
                </source>
                <vertices id="ID18">
                    <input semantic="POSITION" source="#ID17" />
                </vertices>
                <lines count="10" material="Material2">
                    <input offset="0" semantic="VERTEX" source="#ID18" />
                    <p>1 0 0 2 2 3 3 4 4 5 5 6 6 7 7 8 8 9 9 10</p>
                </lines>
            </mesh>
        </geometry>
        <geometry id="ID45">
            <mesh>
                <source id="ID46">
                    <float_array id="ID49" count="954">15.01239 150.4501 152.5788 44.26882 109.1859 176.4027 14.65996 149.6948 152.0939 43.76905 108.6384 175.7978 -12.48688 186.0723 90.87946 -12.48688 184.8604 91.18526 14.53393 148.9994 151.5053 43.46134 108.1992 175.0613 82.35625 61.58848 176.4027 81.74501 61.18029 175.7978 44.92661 109.8043 176.8348 15.5672 151.2138 152.9271 -12.48688 187.5546 89.98288 -12.48688 196.5293 74.43826 -12.48688 196.5343 75.86451 -12.48688 196.2974 73.97318 -12.48688 196.0968 77.72323 -12.48688 195.2467 79.88775 -12.48688 195.0821 73.27155 -12.48688 194.042 82.21057 -12.48688 194.0117 73.54169 -12.48688 192.5646 84.53339 -12.48688 192.5293 74.43826 -12.48688 190.9153 86.69792 -12.48688 190.8774 75.86451 -12.48688 189.2065 88.55664 -12.48688 189.1686 77.72323 -12.48688 187.5546 89.98288 -12.48688 187.5193 79.88775 -12.48688 186.0723 90.87946 -12.48688 186.042 82.21057 -12.48688 184.8604 91.18526 -12.48688 184.8372 84.53339 -12.48688 184.0017 90.87946 -12.48688 183.9871 86.69792 -12.48688 183.5546 89.98288 -12.48688 183.5496 88.55664 -12.48688 184.0017 90.87946 14.64288 148.4111 150.8532 43.36667 107.8982 174.2433 81.27836 60.93971 175.0613 126.6708 20.40429 152.625 126.0081 20.04395 152.0477 83.07042 62.13644 176.8348 45.69757 110.4516 177.0646 16.28658 151.9338 153.1149 -12.48688 189.2065 88.55664 -12.45275 195.1793 73.31244 -12.39748 195.9664 73.74225 -12.48688 195.0821 73.27155 -12.48688 196.2974 73.97318 -12.48688 195.0821 73.27155 -12.48688 194.0117 73.54169 -12.45275 195.1793 73.31244 21.30419 151.4511 149.052 20.95176 150.6958 148.567 -12.48688 192.5293 74.43826 20.39695 149.9321 148.2188 -12.48688 190.8774 75.86451 19.67757 149.2121 148.031 18.84265 148.5848 148.0164 -12.48688 189.1686 77.72323 17.94908 148.0931 148.1761 -12.48688 187.5193 79.88775 17.05775 147.7703 148.4991 -12.48688 186.042 82.21057 16.22942 147.6385 148.9634 -12.48688 184.8372 84.53339 15.52053 147.7067 149.5374 -12.48688 183.9871 86.69792 14.97939 147.9702 150.182 -12.48688 183.5496 88.55664 -12.48688 183.5546 89.98288 17.12151 152.561 153.1294 -12.48688 190.9153 86.69792 18.01508 153.0528 152.9698 -12.48688 192.5646 84.53339 18.9064 153.3756 152.6468 -12.48688 194.042 82.21057 19.73473 153.5074 152.1825 -12.48688 195.2467 79.88775 20.44362 153.4392 151.6085 -12.48688 196.0968 77.72323 20.98476 153.1756 150.9639 -12.48688 196.5343 75.86451 -12.48688 196.5293 74.43826 21.32127 152.7347 150.2927 -12.48688 196.2974 73.97318 -12.39748 195.9664 73.74225 21.43022 152.1465 149.6406 43.49149 107.7559 173.3997 80.98809 60.88312 174.2433 125.432 19.90507 151.3699 174.1898 -3.355186 111.4724 173.5447 -3.724327 110.8799 127.375 20.96155 153.0625 83.83885 62.78685 177.0646 46.52918 111.0835 177.0765 49.40581 111.8156 171.9355 48.90603 111.2682 171.3306 48.24825 110.6497 170.8985 47.47728 110.0025 170.6687 46.64567 109.3706 170.6568 45.81009 108.797 170.8637 45.02749 108.3209 171.2752 44.35119 107.9747 171.8633 43.82729 107.782 172.5879 47.36476 111.6571 176.8696 48.14737 112.1332 176.4581 48.82366 112.4794 175.87 49.34757 112.6721 175.1453 49.68337 112.6982 174.3336 49.80819 112.5559 173.49 49.71352 112.2549 172.672 80.89399 61.01438 173.3997 124.9818 19.99712 150.6378 172.9215 -3.83966 110.2428 221.6741 -3.355186 63.98805 221.1157 -3.724327 63.30883 174.8129 -2.757395 111.9801 128.0727 21.67774 153.3303 84.60918 63.49536 177.0765 85.98829 66.09893 171.9355 85.37705 65.69074 171.3306 84.66288 65.14278 170.8985 83.89444 64.49237 170.6687 83.12412 63.78386 170.6568 82.40439 63.06551 170.8637 81.78432 62.38628 171.2752 81.30615 61.79247 171.8633 81.00248 61.32454 172.5879 85.32891 64.21371 176.8696 85.94898 64.89294 176.4581 86.42715 65.48675 175.87 86.73082 65.95468 175.1453 86.8393 66.26484 174.3336 86.74521 66.3961 173.49 86.45494 66.33951 172.672 124.6882 20.31383 149.9013 172.3627 -3.693328 109.6047 220.5122 -3.83966 62.65216 265.8885 20.36873 22.89702 265.4787 20.07935 22.07966 222.1494 -2.757395 64.64352 175.3715 -1.971693 112.3683 128.7162 22.50405 153.4102 128.5503 26.54348 149.0982 127.8876 26.18314 148.5209 127.1834 25.62588 148.0834 126.4858 24.90969 147.8156 125.8422 24.08338 147.7357 125.2966 23.20325 147.8492 124.886 22.32928 148.1483 124.6386 21.52104 148.6126 124.5711 20.83361 149.2105 129.2619 23.38418 153.2967 129.6724 24.25814 152.9976 129.9198 25.06638 152.5333 129.9873 25.75382 151.9354 129.8703 26.2736 151.2446 129.5766 26.59031 150.5081 129.1264 26.68236 149.776 171.9064 -3.295301 109.0091 219.9047 -3.693328 62.06278 264.959 20.00901 21.34504 303.8225 61.42325 -0.8058172 303.6075 61.34479 -1.744952 266.1605 20.85745 23.74141 222.5092 -1.971693 65.23058 175.8276 -1.051622 112.6105 174.1886 3.724327 109.5742 173.5435 3.355186 108.9817 172.9204 2.757395 108.474 172.3618 1.971693 108.0858 171.9057 1.051622 107.8435 171.5833 0.05988551 107.7637 171.4165 -0.9359323 107.8517 171.4166 -1.867968 108.1016 171.5837 -2.672704 108.4964 176.15 -0.05988551 112.6904 176.3168 0.9359323 112.6024 176.3167 1.867968 112.3525 176.1496 2.672704 111.9577 175.8269 3.295301 111.445 175.3706 3.693328 110.8493 174.8118 3.83966 110.2112 219.3346 -3.295301 61.58085 264.3649 20.16253 20.74322 303.2249 61.42272 -2.565171 332.8992 108.7784 -0.8058172 332.8957 109.0442 -1.744952 303.855 61.65275 0.1882324 266.2762 21.5122 24.55529 222.7289 -1.051622 65.70921 219.7925 3.724327 63.97039 219.234 3.355186 63.29117 218.7587 2.757395 62.6357 218.399 1.971693 62.04864 218.1793 1.051622 61.57001 218.1146 0.05988551 61.23241 218.2093 -0.9359323 61.05887 218.4571 -1.867968 61.06119 218.8409 -2.672704 61.23923 222.7936 -0.05988551 66.04681 222.6988 0.9359323 66.22036 222.4511 1.867968 66.21803 222.0673 2.672704 66.03999 221.5735 3.295301 65.69837 221.0035 3.693328 65.21644 220.396 3.83966 64.62706 263.7369 20.52943 20.31521 302.7005 61.65172 -3.210577 332.6778 109.3906 -2.565171 359.1505 167.9514 32.26515 359.1505 167.6777 33.19969 332.6882 108.6114 0.1882324 303.7028 62.01765 1.169454 266.2277 22.28835 25.28319 262.2546 26.50808 24.50777 261.8448 26.2187 23.69041 261.5728 25.72998 22.84602 261.4571 25.07523 22.03214 261.5056 24.29908 21.30423 261.715 23.45441 20.71191 262.0711 22.59879 20.29553 262.5495 21.79053 20.08347 263.1176 21.08471 20.09018 266.0183 23.13302 25.87552 265.6622 23.98864 26.2919 265.1838 24.7969 26.50396 264.6157 25.50272 26.49725 263.9964 26.058 26.27222 263.3684 26.4249 25.84421 262.7743 26.57841 25.24239 302.0702 62.0162 -3.637189 332.2605 109.7939 -3.210577 359.1505 168.7865 31.72711 359.1505 184.701 42.96704 359.1505 184.3947 41.69968 359.1505 184.4273 43.90158 359.1505 183.5922 44.43961 359.1505 183.5292 40.18588 359.1505 182.2526 44.54448 359.1505 182.1635 38.5288 359.1505 180.4997 44.20904 359.1505 180.3906 36.84136 359.1505 178.4532 43.45614 359.1505 178.3315 35.23856 359.1505 176.2523 42.33709 359.1505 176.1264 33.82963 359.1505 174.0472 40.92816 359.1505 173.9255 32.71059 359.1505 171.9881 39.32536 359.1505 171.879 31.95769 359.1505 170.2152 37.63792 359.1505 170.1262 31.62224 359.1505 168.8495 35.98084 359.1505 168.7865 31.72711 359.1505 167.984 34.46704 359.1505 167.9514 32.26515 359.1505 167.6777 33.19969 359.1505 167.984 34.46704 332.2771 108.5544 1.169454 303.3765 62.49308 2.07098 298.6842 65.93443 1.744952 298.4693 65.85597 0.8058172 298.4368 65.62647 -0.1882324 298.5889 65.26157 -1.169454 298.9153 64.78614 -2.07098 299.3937 64.23257 -2.831371 299.9914 63.63859 -3.39881 300.6679 63.04468 -3.734625 301.377 62.49131 -3.815931 302.8981 63.04665 2.831371 302.3003 63.64063 3.39881 301.6238 64.23454 3.734625 300.9148 64.78791 3.815931 300.2215 65.26302 3.637189 299.5912 65.6275 3.210577 299.0669 65.8565 2.565171 331.6723 110.2268 -3.637189 359.1505 170.1262 31.62224 359.1505 178.3315 35.23856 359.1505 180.3906 36.84136 329.3235 111.4096 -3.39881 328.5243 111.6755 -2.831371 359.1505 182.1635 38.5288 327.8086 111.8426 -2.07098 359.1505 183.5292 40.18588 327.2254 111.8996 -1.169454 359.1505 184.3947 41.69968 326.8142 111.8427 -0.1882324 359.1505 184.701 42.96704 326.6032 111.6757 0.8058172 359.1505 184.4273 43.90158 326.6068 111.4099 1.744952 359.1505 183.5922 44.43961 326.8246 111.0635 2.565171 359.1505 182.2526 44.54448 327.2419 110.6601 3.210577 359.1505 180.4997 44.20904 327.8302 110.2272 3.637189 359.1505 178.4532 43.45614 328.5494 109.7943 3.815931 359.1505 176.2523 42.33709 329.3505 109.3909 3.734625 359.1505 174.0472 40.92816 330.1789 109.0445 3.39881 359.1505 171.9881 39.32536 330.9782 108.7786 2.831371 359.1505 170.2152 37.63792 331.6938 108.6115 2.07098 359.1505 168.8495 35.98084 359.1505 171.879 31.95769 359.1505 173.9255 32.71059 330.9531 110.6597 -3.815931 359.1505 176.1264 33.82963 330.152 111.0632 -3.734625</float_array>
                    <technique_common>
                        <accessor count="318" source="#ID49" stride="3">
                            <param name="X" type="float" />
                            <param name="Y" type="float" />
                            <param name="Z" type="float" />
                        </accessor>
                    </technique_common>
                </source>
                <source id="ID47">
                    <float_array id="ID50" count="954">-0.7554432 0.1080635 0.6462413 -0.5438154 -0.1811813 0.8194133 -0.8488719 -0.08865664 0.5211108 -0.676813 -0.3264927 0.6597929 -0.8106873 0.2720911 0.5184134 -0.9075767 0.02531824 0.4191224 -0.8896402 -0.2974352 0.346515 -0.7725018 -0.4615764 0.4361057 -0.2942261 -0.4848099 0.8236446 -0.4580406 -0.5941261 0.6612208 -0.390754 -0.03733914 0.9197375 -0.6269371 0.283623 0.7256086 -0.6758655 0.4665241 0.5705796 -1 6.969765e-30 6.463466e-30 -1 6.969765e-30 6.463466e-30 -1 6.969765e-30 6.463466e-30 -1 6.969765e-30 6.463466e-30 -1 6.969765e-30 6.463466e-30 -1 6.969765e-30 6.463466e-30 -1 6.969765e-30 6.463466e-30 -1 6.969765e-30 6.463466e-30 -1 6.969765e-30 6.463466e-30 -1 6.969765e-30 6.463466e-30 -1 6.969765e-30 6.463466e-30 -1 6.969765e-30 6.463466e-30 -1 6.969765e-30 6.463466e-30 -1 6.969765e-30 6.463466e-30 -1 6.969765e-30 6.463466e-30 -1 6.969765e-30 6.463466e-30 -1 6.969765e-30 6.463466e-30 -1 6.969765e-30 6.463466e-30 -1 6.969765e-30 6.463466e-30 -1 6.969765e-30 6.463466e-30 -1 6.969765e-30 6.463466e-30 -1 6.969765e-30 6.463466e-30 -1 6.969765e-30 6.463466e-30 -1 6.969765e-30 6.463466e-30 -0.9283891 -0.2643898 0.2611355 -0.857897 -0.4974859 0.1285325 -0.8085368 -0.5670323 0.157298 -0.6035095 -0.6694969 0.4330706 -0.03015984 -0.7246444 0.6884627 -0.2087456 -0.8207104 0.5318456 -0.1274994 -0.3570937 0.9253259 -0.2269853 0.1001959 0.9687303 -0.4740603 0.4360396 0.764942 -0.5174061 0.6207724 0.5890098 -0.3600924 0.4664583 -0.8079295 -0.3600924 0.4664583 -0.8079295 -0.3600924 0.4664583 -0.8079295 -0.3600924 0.4664583 -0.8079295 0.8806178 -0.1159355 -0.4594248 0.863657 -0.1607745 -0.4777532 0.9140966 0.003339488 -0.4054828 0.8573401 0.1146256 -0.5018256 0.7662271 -0.08991594 -0.6362477 0.7617228 -0.3529936 -0.5432991 0.6359425 -0.273111 -0.7217946 0.6283884 -0.518822 -0.5796134 0.4788845 -0.4318549 -0.7643108 0.3005581 -0.5660419 -0.7676337 0.4705934 -0.6569495 -0.5890324 0.1025311 -0.6741727 -0.7314222 0.2896393 -0.7673319 -0.5721109 -0.1136303 -0.7504251 -0.6511146 0.08392199 -0.8463179 -0.5260257 -0.3410572 -0.7830291 -0.5201398 -0.1471523 -0.8835836 -0.4445517 -0.5614841 -0.7561491 -0.3361163 -0.3965916 -0.8604153 -0.320001 -0.7441574 -0.658825 -0.1103605 -0.640776 -0.7530898 -0.1492042 -0.8353796 -0.5467451 0.05666338 -0.3015286 0.5654142 0.7677157 -0.3378081 0.7420621 0.5789901 -0.1107089 0.6704532 0.7336457 -0.1356955 0.8306271 0.540042 0.09714562 0.7461075 0.6587005 0.08962312 0.8793165 0.4677288 0.3166411 0.7820999 0.5367105 0.3320027 0.8734036 0.3562869 0.5330608 0.7638048 0.3639347 0.5705113 0.7953188 0.2049019 0.7197661 0.6784747 0.1469996 0.7679865 0.6398903 0.02715095 0.88923 0.433526 -0.1460315 0.8452224 0.5266031 -0.09103978 0.9075036 0.3759003 -0.1874462 0.9296287 0.2520559 -0.2688089 0.8899327 0.3284069 -0.3164944 -0.7690402 -0.622286 -0.146073 -0.7067851 -0.6914999 0.1492741 -0.3896046 -0.8640491 0.3187906 0.2276292 -0.8516151 0.4721618 0.05325848 -0.9488129 0.3113159 0.1343534 -0.5956838 0.7919028 0.03535259 -0.219499 0.974972 -0.05617816 0.2300961 0.971545 0.6876351 0.3397617 -0.6416541 0.5528442 0.1902918 -0.8112659 0.3956403 0.04167162 -0.9174597 0.2268695 -0.1002883 -0.9687479 0.0507306 -0.234034 -0.970904 -0.1314189 -0.3586127 -0.9241894 -0.3171693 -0.4707161 -0.8233043 -0.4986078 -0.5620303 -0.6599335 -0.6580498 -0.6180653 -0.4300764 0.1204762 0.3515213 0.9283955 0.301021 0.4616325 0.834435 0.4789717 0.55325 0.6815428 0.6392571 0.6133381 0.4638607 0.7573389 0.6252862 0.1882946 0.8077477 0.5779561 -0.1162342 0.7803941 0.4762023 -0.4052362 -0.7453581 -0.6478151 -0.1574069 -0.5494658 -0.8333022 0.06078464 -0.1435982 -0.9835448 0.109632 0.4606722 -0.8532541 0.2444149 0.3094508 -0.9489142 0.06166133 0.3730591 -0.7148945 0.591399 0.2816237 -0.445755 0.8497003 0.192459 -0.07526218 0.9784146 0.4673311 0.5996993 -0.6495864 0.2988166 0.4881159 -0.8200314 0.1270471 0.3567284 -0.925529 -0.0402883 0.2151412 -0.9757516 -0.2011958 0.06689399 -0.9772643 -0.3549875 -0.08718916 -0.9307964 -0.4986996 -0.2456958 -0.8312234 -0.6236435 -0.4028296 -0.6699232 -0.7130477 -0.5444218 -0.4417782 0.3431902 0.07487396 0.9362769 0.4850585 0.2298598 0.8437315 0.6105686 0.3850236 0.6920714 0.7044746 0.5281393 0.4741143 0.7450701 0.6377281 0.1953802 0.7147023 0.6899253 -0.1149078 0.6148136 0.6738983 -0.4097137 -0.6604376 -0.7208383 -0.2102721 -0.3429817 -0.9319135 -0.1179012 0.117968 -0.982256 -0.1457967 0.6536833 -0.753796 0.06700571 0.5420721 -0.8268777 -0.1497699 0.5716758 -0.7184933 0.3961744 0.4905667 -0.5525284 0.6738373 0.4119942 -0.2796751 0.8672039 0.2132703 0.8225151 -0.5272425 0.02903644 0.7238938 -0.6893002 -0.1397116 0.5908271 -0.7946093 -0.2897357 0.4364323 -0.8518099 -0.4216559 0.265803 -0.8669227 -0.5355487 0.07961965 -0.8407427 -0.6280255 -0.1220093 -0.7685686 -0.6899466 -0.3347282 -0.6418183 -0.706028 -0.5437717 -0.4536924 0.5255068 -0.09808232 0.8451168 0.6191909 0.09930625 0.7789358 0.6846972 0.3094562 0.6598686 0.7070908 0.519982 0.479209 0.6686781 0.7041613 0.2388021 0.561496 0.8266521 -0.03699263 0.3996492 0.8644595 -0.3049432 -0.5141227 -0.7874315 -0.3400434 -0.09995878 -0.928758 -0.356955 0.3765424 -0.8450951 -0.379513 0.7963321 -0.6043719 -0.02428318 0.7357889 -0.6214368 -0.2691301 0.7182066 -0.6456983 0.2593319 0.6475982 -0.558351 0.5185178 0.5826581 -0.3699698 0.7236241 -0.05498204 0.9481638 -0.3129893 -0.2338575 0.846897 -0.4775731 -0.3813477 0.7052228 -0.5976911 -0.4991992 0.5380333 -0.6792057 -0.5904288 0.3508653 -0.7268338 -0.6556005 0.1439893 -0.7412523 -0.6908795 -0.08334753 -0.7181495 -0.6870496 -0.3274778 -0.6486302 -0.6311384 -0.5728764 -0.5229503 0.6498414 -0.1675087 0.7413818 0.6885797 0.05608988 0.7229882 0.6899059 0.2986855 0.6594064 0.6400275 0.5472377 0.5393475 0.5269502 0.7706881 0.3582783 0.3542922 0.9258205 0.1316564 0.14865 0.9833874 -0.1041752 -0.3141424 -0.7817285 -0.5387162 0.1624873 -0.7877066 -0.5942358 0.6127381 -0.5935429 -0.5217842 0.8859144 -0.4628511 -0.03040543 0.87931 -0.3918069 -0.2707422 0.8073253 -0.5557333 0.1984601 0.7442066 -0.5142541 0.4262619 0.6926175 -0.3778965 0.6143901 -0.316772 0.9459103 -0.07006514 -0.4696906 0.8448871 -0.2560402 -0.5798995 0.7049337 -0.4083932 -0.6537338 0.5403268 -0.5297916 -0.6958695 0.3559639 -0.623743 -0.7068734 0.1515672 -0.6909105 -0.6824343 -0.07414253 -0.727177 -0.6137846 -0.3179991 -0.7225961 -0.4913515 -0.564712 -0.6630792 0.707291 -0.1769112 0.6844282 0.6874128 0.04645433 0.7247798 0.6238225 0.29062 0.7255243 0.5051204 0.5424499 0.6712686 0.3271112 0.7693209 0.5487655 0.1064363 0.9257511 0.3628447 -0.1198046 0.982312 0.1439095 -0.07435952 -0.6499887 -0.7562972 0.4230177 -0.5092029 -0.7495121 0.8065259 -0.2833603 -0.5188669 0.9314731 -0.2835619 -0.2279267 0.9062087 -0.4217041 0.03084597 0.8439423 -0.5021108 0.188802 0.7796494 -0.4842032 0.3971071 0.7367614 -0.3635936 0.5700723 -0.5523756 0.8229733 0.1326503 -0.6620375 0.7443745 -0.08725229 -0.7230105 0.6316647 -0.2797417 -0.7450467 0.4966358 -0.445262 -0.7334892 0.3431022 -0.586749 -0.688434 0.1704033 -0.7049974 -0.6052015 -0.02313137 -0.7957362 -0.4762119 -0.2354623 -0.8472188 -0.2965663 -0.4538809 -0.8402622 0.6960171 -0.1931062 0.6915708 0.61712 -0.0005271016 0.7868689 0.491424 0.213552 0.8443329 0.3115723 0.4380039 0.8432528 0.08334348 0.6433593 0.7610142 -0.1633076 0.7880571 0.5935458 -0.3848457 0.8457532 0.3695881 0.1844805 -0.3710454 -0.9101056 0.6543664 -0.1393558 -0.7432258 0.8633531 -0.09914194 -0.4947649 1 2.589462e-15 3.414832e-16 1 2.589462e-15 3.414832e-16 1 2.589462e-15 3.414832e-16 1 2.589462e-15 3.414832e-16 1 2.589462e-15 3.414832e-16 1 2.589462e-15 3.414832e-16 1 2.589462e-15 3.414832e-16 1 2.589462e-15 3.414832e-16 1 2.589462e-15 3.414832e-16 1 2.589462e-15 3.414832e-16 1 2.589462e-15 3.414832e-16 1 2.589462e-15 3.414832e-16 1 2.589462e-15 3.414832e-16 1 2.589462e-15 3.414832e-16 1 2.589462e-15 3.414832e-16 1 2.589462e-15 3.414832e-16 1 2.589462e-15 3.414832e-16 1 2.589462e-15 3.414832e-16 1 2.589462e-15 3.414832e-16 1 2.589462e-15 3.414832e-16 1 2.589462e-15 3.414832e-16 1 2.589462e-15 3.414832e-16 1 2.589462e-15 3.414832e-16 1 2.589462e-15 3.414832e-16 0.8205259 -0.5122039 0.2537408 0.7653682 -0.515514 0.385301 0.7184574 -0.3930942 0.5738431 -0.7451542 0.6214993 0.2418343 -0.8002093 0.5996963 -0.005423267 -0.805634 0.5471339 -0.2271526 -0.7730363 0.4725735 -0.4231892 -0.7074855 0.379075 -0.5964617 -0.6083159 0.2659207 -0.7478221 -0.4707853 0.130766 -0.872503 -0.2893824 -0.02703616 -0.9568317 -0.0650778 -0.2007953 -0.9774692 0.6231449 -0.2817118 0.7296088 0.4884337 -0.1471916 0.8600972 0.3071523 0.01234677 0.9515803 0.07778008 0.1914935 0.9784071 -0.1822979 0.369662 0.9111078 -0.4312907 0.5134609 0.7418532 -0.6248659 0.5976799 0.502316 0.4309893 0.02412512 -0.9020345 0.6906812 0.1052367 -0.7154612 -0.3101647 0.5752371 -0.7569017 -0.4978942 0.5892708 -0.6362871 -0.3061129 0.404966 -0.8615668 -0.4893449 0.4672768 -0.7363382 -0.6522746 0.5755119 -0.4932787 -0.6359182 0.5028672 -0.5854338 -0.7756892 0.5370794 -0.3314392 -0.7502253 0.5155215 -0.4140042 -0.8668066 0.4746192 -0.1529149 -0.8337204 0.5058417 -0.2214375 -0.9199899 0.3904746 0.03388381 -0.8822331 0.4707883 -0.004814244 -0.9323172 0.2937277 0.2109708 -0.8837746 0.4038582 0.236307 -0.9016757 0.1730965 0.3962557 -0.8185531 0.2974763 0.4914048 -0.802048 0.01272128 0.5971241 -0.6679398 0.1506281 0.7288125 -0.6191635 -0.1670359 0.7672911 -0.4362398 -0.02064547 0.8995936 -0.3733696 -0.3334026 0.8657008 -0.1630271 -0.1855294 0.9690206 -0.1071086 -0.4608902 0.8809699 0.1013996 -0.3187506 0.9423992 0.1433517 -0.5419806 0.8280745 0.3278465 -0.4131664 0.8495942 0.3616027 -0.581787 0.7285378 0.5107156 -0.4734043 0.7176754 0.5455715 -0.587958 0.5972077 0.6547815 -0.5061317 0.5613304 0.698113 -0.5650339 0.4397442 0.44374 0.2914874 -0.8474255 0.171376 0.4342048 -0.8843622 0.1710541 0.1811046 -0.9684739 -0.08613425 0.5266567 -0.845703 -0.08350356 0.310493 -0.9469009</float_array>
                    <technique_common>
                        <accessor count="318" source="#ID50" stride="3">
                            <param name="X" type="float" />
                            <param name="Y" type="float" />
                            <param name="Z" type="float" />
                        </accessor>
                    </technique_common>
                </source>
                <vertices id="ID48">
                    <input semantic="POSITION" source="#ID46" />
                    <input semantic="NORMAL" source="#ID47" />
                </vertices>
                <triangles count="528" material="Material2">
                    <input offset="0" semantic="VERTEX" source="#ID48" />
                    <p>0 1 2 3 2 1 4 0 5 2 5 0 2 3 6 7 6 3 8 9 1 3 1 9 10 1 11 0 11 1 12 11 4 0 4 11 13 14 15 14 16 15 16 17 15 15 17 18 17 19 18 18 19 20 19 21 20 20 21 22 21 23 22 22 23 24 23 25 24 24 25 26 25 27 26 26 27 28 27 29 28 28 29 30 29 31 30 30 31 32 31 33 32 32 33 34 33 35 34 36 34 35 5 2 37 6 37 2 6 7 38 39 38 7 3 9 7 40 7 9 41 42 8 9 8 42 43 8 10 1 10 8 44 10 45 11 45 10 46 45 12 11 12 45 47 48 49 50 49 48 51 52 53 53 52 54 55 54 52 52 56 55 57 55 56 56 58 57 59 57 58 60 59 61 58 61 59 62 60 63 61 63 60 64 62 65 63 65 62 66 64 67 65 67 64 68 66 69 67 69 66 70 68 71 69 71 68 72 38 71 70 71 38 37 6 72 38 72 6 45 46 73 74 73 46 73 74 75 76 75 74 75 76 77 78 77 76 77 78 79 80 79 78 79 80 81 82 81 80 81 82 83 84 83 82 84 85 83 86 83 85 87 88 85 85 88 86 89 86 88 38 39 70 90 70 39 7 40 39 91 39 40 9 42 40 92 40 42 41 93 42 94 42 93 95 41 43 8 43 41 96 43 44 10 44 43 97 44 73 45 73 44 88 53 89 54 89 53 54 55 98 99 98 55 99 55 100 57 100 55 100 57 101 59 101 57 101 59 102 60 102 59 102 60 103 62 103 60 103 62 104 64 104 62 104 64 105 66 105 64 106 105 68 66 68 105 68 70 106 90 106 70 107 97 75 73 75 97 108 107 77 75 77 107 109 108 79 77 79 108 109 79 110 81 110 79 83 111 81 110 81 111 83 86 111 112 111 86 86 89 112 113 112 89 90 39 114 91 114 39 40 92 91 115 91 92 42 94 92 116 92 94 93 117 94 118 94 117 95 119 41 93 41 119 120 95 96 43 96 95 121 96 97 44 97 96 89 54 113 98 113 54 122 98 123 99 123 98 123 99 124 100 124 99 124 100 125 101 125 100 125 101 126 102 126 101 126 102 127 103 127 102 127 103 128 104 128 103 128 104 129 105 129 104 105 106 129 130 129 106 106 90 130 114 130 90 131 121 107 97 107 121 132 131 108 107 108 131 133 132 109 108 109 132 110 134 109 133 109 134 111 135 110 134 110 135 112 136 111 135 111 136 112 113 136 137 136 113 91 115 114 138 114 115 92 116 115 139 115 116 94 118 116 140 116 118 117 141 118 142 118 141 119 143 93 117 93 143 144 119 120 95 120 119 145 120 121 96 121 120 113 98 137 122 137 98 146 122 147 123 147 122 147 123 148 124 148 123 148 124 149 125 149 124 149 125 150 126 150 125 150 126 151 127 151 126 151 127 152 128 152 127 152 128 153 129 153 128 129 130 153 154 153 130 130 114 154 138 154 114 155 145 131 121 131 145 156 155 132 131 132 155 157 156 133 132 133 156 134 158 133 157 133 158 135 159 134 158 134 159 135 136 159 160 159 136 136 137 160 161 160 137 115 139 138 162 138 139 116 140 139 163 139 140 118 142 140 164 140 142 141 165 142 166 142 165 143 167 117 141 117 167 144 168 119 143 119 168 169 144 145 120 145 144 137 122 161 146 161 122 146 147 170 171 170 147 147 148 171 172 171 148 172 148 173 149 173 148 173 149 174 150 174 149 174 150 175 151 175 150 175 151 176 152 176 151 152 153 176 177 176 153 153 154 177 178 177 154 154 138 178 162 178 138 179 169 155 145 155 169 180 179 156 155 156 179 157 181 156 180 156 181 158 182 157 181 157 182 159 183 158 182 158 183 159 160 183 184 183 160 160 161 184 185 184 161 139 163 162 186 162 163 140 164 163 187 163 164 142 166 164 188 164 166 189 190 165 166 165 190 191 165 167 141 167 165 192 167 168 143 168 167 169 193 144 168 144 193 161 146 185 170 185 146 170 171 194 195 194 171 171 172 195 196 195 172 172 173 196 197 196 173 197 173 198 174 198 173 198 174 199 175 199 174 199 175 200 176 200 175 201 200 177 176 177 200 202 201 178 177 178 201 162 186 178 202 178 186 179 203 169 193 169 203 204 203 180 179 180 203 204 180 205 181 205 180 205 181 206 182 206 181 182 183 206 207 206 183 183 184 207 208 207 184 184 185 208 209 208 185 163 187 186 210 186 187 164 188 187 211 187 188 212 188 190 166 190 188 213 190 214 189 214 190 215 189 191 165 191 189 216 191 192 167 192 191 217 192 193 168 193 192 185 170 209 194 209 170 194 195 218 219 218 195 195 196 219 220 219 196 220 196 221 197 221 196 221 197 222 198 222 197 222 198 223 199 223 198 224 223 200 199 200 223 225 224 201 200 201 224 226 225 202 201 202 225 210 226 186 202 186 226 227 217 203 193 203 217 227 203 228 204 228 203 228 204 229 205 229 204 229 205 230 206 230 205 230 206 231 207 231 206 207 208 231 232 231 208 208 209 232 233 232 209 211 234 187 210 187 234 212 235 188 211 188 235 236 212 213 190 213 212 237 238 239 239 238 240 238 241 240 240 241 242 241 243 242 242 243 244 243 245 244 244 245 246 245 247 246 246 247 248 247 249 248 248 249 250 249 251 250 250 251 252 251 253 252 252 253 254 253 255 254 254 255 256 255 257 256 256 257 258 257 259 258 260 258 259 214 189 261 215 261 189 262 215 216 191 216 215 263 216 217 192 217 216 209 194 233 218 233 194 218 219 264 265 264 219 265 219 266 220 266 219 266 220 267 221 267 220 267 221 268 222 268 221 268 222 269 223 269 222 270 269 224 223 224 269 271 270 225 224 225 270 272 271 226 225 226 271 234 272 210 226 210 272 273 263 227 217 227 263 273 227 274 228 274 227 274 228 275 229 275 228 275 229 276 230 276 229 276 230 277 231 277 230 277 231 278 232 278 231 232 233 278 279 278 233 235 280 211 234 211 280 281 235 236 212 236 235 282 283 284 285 284 283 283 286 285 287 285 286 288 289 286 287 286 289 288 290 289 291 289 290 290 292 291 293 291 292 292 294 293 295 293 294 294 296 295 297 295 296 296 298 297 299 297 298 300 301 298 299 298 301 302 303 300 301 300 303 304 305 302 303 302 305 306 307 304 305 304 307 308 309 306 307 306 309 310 311 308 309 308 311 310 312 311 262 311 312 261 215 312 262 312 215 281 313 235 280 235 313 313 314 280 315 280 314 314 316 315 317 315 316 316 282 317 284 317 282 311 262 263 216 263 262 233 218 279 264 279 218 295 264 293 265 293 264 293 265 291 266 291 265 291 266 289 267 289 266 289 267 287 268 287 267 285 287 269 268 269 287 284 285 270 269 270 285 317 284 271 270 271 284 315 317 272 271 272 317 280 315 234 272 234 315 311 263 309 273 309 263 309 273 307 274 307 273 307 274 305 275 305 274 305 275 303 276 303 275 303 276 301 277 301 276 301 277 299 278 299 277 299 278 297 279 297 278 295 297 264 279 264 297</p>
                </triangles>
            </mesh>
        </geometry>
        <geometry id="ID51">
            <mesh>
                <source id="ID52">
                    <float_array id="ID54" count="33">17.98208 150.5729 150.5729 0 173.8666 110.227 46.58743 110.227 173.8666 83.86665 63.63961 173.8666 127.2792 23.29371 150.5729 173.8666 -2.273737e-13 110.227 220.4541 0 63.63961 263.8666 23.29371 23.29371 301.1459 63.63961 -2.842171e-14 329.7512 110.227 2.842171e-14 347.7333 150.5729 23.29371</float_array>
                    <technique_common>
                        <accessor count="11" source="#ID54" stride="3">
                            <param name="X" type="float" />
                            <param name="Y" type="float" />
                            <param name="Z" type="float" />
                        </accessor>
                    </technique_common>
                </source>
                <vertices id="ID53">
                    <input semantic="POSITION" source="#ID52" />
                </vertices>
                <lines count="10" material="Material2">
                    <input offset="0" semantic="VERTEX" source="#ID53" />
                    <p>1 0 0 2 2 3 3 4 4 5 5 6 6 7 7 8 8 9 9 10</p>
                </lines>
            </mesh>
        </geometry>
    </library_geometries>
    <library_materials>
        <material id="ID8" name="material">
            <instance_effect url="#ID7" />
        </material>
        <material id="ID15" name="edge_color000255">
            <instance_effect url="#ID16" />
        </material>
    </library_materials>
    <library_effects>
        <effect id="ID7">
            <profile_COMMON>
                <technique sid="COMMON">
                    <lambert>
                        <diffuse>
                            <color>1 1 1 1</color>
                        </diffuse>
                    </lambert>
                </technique>
            </profile_COMMON>
        </effect>
        <effect id="ID16">
            <profile_COMMON>
                <technique sid="COMMON">
                    <constant>
                        <transparent opaque="A_ONE">
                            <color>0 0 0 1</color>
                        </transparent>
                        <transparency>
                            <float>1</float>
                        </transparency>
                    </constant>
                </technique>
            </profile_COMMON>
        </effect>
    </library_effects>
    <scene>
        <instance_visual_scene url="#ID2" />
    </scene>
</COLLADA>
